<?xml version="1.0" ?><!DOCTYPE svg  PUBLIC '-//W3C//DTD SVG 1.1//EN'  'http://www.w3.org/Graphics/SVG/1.1/DTD/svg11.dtd'><svg height="78px" id="Layer_1" style="enable-background:new 0 0 78 78;" version="1.1" viewBox="0 0 78 78" width="78px" xml:space="preserve" xmlns="http://www.w3.org/2000/svg" xmlns:xlink="http://www.w3.org/1999/xlink"><g><path d="M12,3.005v17.996H0v44.494c0,5.247,4.253,9.5,9.5,9.5h59c5.25,0,9.5-4.25,9.5-9.5V3.005H12z    M72,65.495c0,1.93-1.57,3.5-3.5,3.5h-59c-1.93,0-3.5-1.57-3.5-3.5V27.001h6v29.994c0,1.66,1.34,3,3,3s3-1.34,3-3V9.005h54V65.495z   " style="fill:#333F4F;"/><rect height="11.997" style="fill:#333F4F;" width="42" x="24" y="14.995"/><rect height="3" style="fill:#333F4F;" width="18" x="24" y="32.998"/><rect height="3" style="fill:#333F4F;" width="18" x="48" y="32.998"/><rect height="3" style="fill:#333F4F;" width="18" x="24" y="40.997"/><rect height="3" style="fill:#333F4F;" width="18" x="48" y="40.997"/><rect height="3" style="fill:#333F4F;" width="18" x="24" y="48.998"/><rect height="3" style="fill:#333F4F;" width="18" x="48" y="48.998"/><rect height="3" style="fill:#333F4F;" width="18" x="24" y="56.998"/><rect height="3" style="fill:#333F4F;" width="18" x="48" y="56.998"/></g></svg>